<svg xmlns="http://www.w3.org/2000/svg" width="215" height="58" fill="none"><g opacity=".5"><path fill="#fff" d="M47 37v56H-9V37z"/><path fill="#fff" d="M47 37v56H19V37zM-9 65c0 15.464 12.536 28 28 28V37C3.536 37-9 49.536-9 65Z"/><path fill="#FF9E66" d="M-9-19v56h56v-56z"/><path fill="#fff" d="M103 37v56H47V37zM47-19v56h56v-56z"/><path fill="#FF9E66" d="M47 37a56.002 56.002 0 0 0 56-56H47v56Z"/><path fill="#fff" d="M159 37v56h-56V37z"/><path fill="#FFBE99" d="M159 37v56h-28V37zM103 65c0 15.464 12.536 28 28 28V37c-15.464 0-28 12.536-28 28Z"/><path fill="#fff" d="M103-19v56h56v-56z"/><path fill="#FF9E66" d="M159 37a55.999 55.999 0 0 1-56-56h56v56Z"/><path fill="url(#a)" d="M215 37h56v56h-56z" transform="rotate(90 215 37)"/><path fill="url(#b)" d="M0 0h56v56H0z" transform="matrix(0 1 1 0 159 -19)"/></g><defs><linearGradient id="a" x1="243" x2="243" y1="37" y2="93" gradientUnits="userSpaceOnUse"><stop stop-color="#FFBE99" stop-opacity="0"/><stop offset="1" stop-color="#FFBE99"/></linearGradient><linearGradient id="b" x1="28" x2="28" y1="0" y2="56" gradientUnits="userSpaceOnUse"><stop stop-color="#FF9E66"/><stop offset="1" stop-color="#FF9E66" stop-opacity="0"/></linearGradient></defs></svg>