<svg xmlns="http://www.w3.org/2000/svg" width="73" height="45" fill="none"><g fill="#262626" opacity=".9"><path d="M24.253 42.88c.085.031.176.061.267.098.641.218 1.44.466 2.052.654.636.181 1.49.381 2.131.532-8.35-2.04-15.476-6.611-21.173-13.599l1.604 1.98c.2.224.375.424.545.606a78.14 78.14 0 0 0 2.01 2.022c.442.406.993.89 1.756 1.568.394.315.854.666 1.326 1.017 4.05 2.985 6.818 4.087 9.488 5.129l-.006-.006Z"/><path d="M2.764 22.052c6.636 15.67 23.257 21.67 29.13 22.657.03 0 .055.006.085.013.309.036.696.078.999.109l.617.054h.03c-3.463-.32-27.282-7.35-32.647-28.972.06.32.115.635.176.926a81.028 81.028 0 0 0 1.525 4.983c.03.079.061.152.085.23Z"/><path d="M35.709 44.994c.139 0 .272.006.411.006H37.113C34.364 44.952-4.968 30.045 1.39-.242v.006C1.172.618.96 1.77.778 2.628.602 3.73.458 5.214.336 6.322-.312 33.49 32.112 44.649 35.709 44.994Z"/><path d="M4.926-8.997C-11.053 21.81 33.705 43.559 39.057 44.909c.037 0 .073 0 .11-.006l.235-.018c.037 0 .073-.006.115-.012.273-.024.6-.06.878-.085a.538.538 0 0 0 .103-.012c-6.34-4.82-14.053-7.448-20.162-12.63-2.991-2.538-9.997-8.477-14.09-16.421-8.192-15.894-.902-26.03 2.676-30.39-.127.146-.248.291-.37.43l-.605.72a83.014 83.014 0 0 0-2.99 4.463c-.013.018-.019.037-.031.055Z"/><path d="m28.146-26.435.067-.018c-.055.012-.121.024-.17.036-.4.09-.92.23-1.314.339-.811.224-1.883.557-2.67.854-.484.181-1.126.424-1.598.623-.57.242-1.314.594-1.877.854-.575.267-1.32.66-1.865.981-.642.375-1.435.866-2.138 1.32C9.346-16.47 3.636-8.483 4.423.52c1.865 21.24 25.921 35.808 34.973 41.294 2.091 1.268 3.197 2.148 3.318 2.64 0 0 .043-.006.06-.012.497-.091 1.12-.224 1.617-.327.019 0 .037-.006.055-.012.175-.06.303-.315.424-.46-.412-.794-1.217-1.363-5.57-4.215-11.202-7.338-22.476-15.779-29.058-27.737-14.853-26.998 13.95-40.967 26.29-37.68-2.391-.926-5.304-1.029-8.38-.453l-.006.006Z"/><path d="M40.667 36.414c6.818 4.82 8.44 5.964 6.285 7.03.025-.006.049-.012.067-.018.333-.103.708-.23 1.078-.352.254-.084.502-.175.75-.266 3.052-1.417.394-3.379-5.964-8.059-7.03-5.177-15.785-11.62-23.208-21.04-21.918-27.817 1.478-41.585 16.845-39.69-17.462-3.784-55.039 20.58 4.141 62.395h.006Z"/><path d="M44.676 31.001c7.95 6.097 10.929 8.38 6.981 10.656.03-.012.06-.03.09-.042.66-.315 1.484-.75 2.12-1.072 3.076-1.798 1.847-3.887.06-5.873C46.45 26.357 36.52 20.847 28.86 12.74c-24.649-26.097-8.113-39.078 7.666-38.715-16.082-1.465-44.794 16.384 8.15 56.982v-.006Z"/><path d="M50.821 25.958c7.575 6.067 10.276 9.33 6.23 12.612.691-.484 1.57-1.175 2.26-1.702.345-.284.708-.593 1.053-.902 3.142-2.876 1.38-4.432-19.763-23.056-30.65-26.993-16.839-36.523-6.848-38.516-9.058 1.69-34.32 10.39 17.068 51.564Z"/><path d="M49.41 14.078C61.975 24.19 66.692 28.816 62.605 33.841a.982.982 0 0 0 .079-.085c.642-.69 1.417-1.604 2.022-2.3.012-.019.024-.03.037-.049 3.578-4.686.157-9.621-14.593-21.083-38.484-29.899-18.098-35.481-13.617-36.299-3.264.412-30.626 5.044 12.885 40.053h-.006Z"/><path d="M52.008 5.989c14.217 10.62 18.128 16.051 15.47 21.482.11-.181.212-.357.315-.533l.097-.17.206-.356.811-1.563c.097-.2.194-.4.291-.593 3.173-7.278-8.852-16.033-16.832-21.84-26.006-18.921-22.967-25.878-15.84-28.385-6.085 1.586-16.766 7.883 15.482 31.97v-.012Z"/><path d="M52.698-2.258C65.111 6.485 72.546 12.334 71.002 19.63c.073-.248.151-.496.218-.739.248-.908.497-1.931.697-2.749C72.981 8.871 65.474 3.324 53.14-5.11c-8.15-5.577-23.317-15.955-16.614-20.871C26.015-21.06 46.099-6.908 52.698-2.258Z"/><path d="M53.613-8.688C67.6.388 72.353 4.505 72.607 10.754c.006-.121.018-.248.025-.37l.042-1.525-.037-1.478c-.005-.17-.012-.333-.024-.502C72.074.32 63.337-5.086 52.287-11.915c-7.774-4.802-16.584-10.251-15.755-14.06-3.639 3.851 8.834 11.94 17.087 17.293l-.006-.006Z"/><path d="M52.704-14.483C65.59-7.168 70.44-3.614 71.984 1.744c-.195-.926-.51-2.1-.77-3.094l-.181-.611c-2.096-5.45-9.113-9.361-21.302-15.767-8.616-4.535-11.455-6.31-13.205-8.247 1.005 2.882 7.369 6.497 16.178 11.498v-.006Z"/></g></svg>