<svg xmlns="http://www.w3.org/2000/svg" width="200" height="200" fill="none"><g clip-path="url(#a)"><path fill="#FFBE99" d="M0 24.996 24.996 0H49.99v24.996L24.996 49.99H0V24.996Z"/><path fill="#262626" d="M49.992 0H24.996v24.996h24.996V0Z"/><path fill="#FFBE99" d="m0 75.004 24.996-25.013H49.99v25.013L24.996 100H0V75.004Z"/><path fill="#262626" d="M49.992 49.992H24.996v24.995h24.996V49.992Z"/><path fill="#FFBE99" d="M0 124.996 24.996 100H49.99v24.996l-24.995 24.995H0v-24.995Z"/><path fill="#262626" d="M49.992 100H24.996v24.996h24.996V100Z"/><path fill="#FFBE99" d="m0 174.987 24.996-24.996H49.99v24.996L24.996 200H0v-25.013Z"/><path fill="#262626" d="M49.992 149.991H24.996v24.996h24.996v-24.996Z"/><path fill="#FFBE99" d="M49.991 24.996 75.004 0H100v24.996L75.004 49.99H49.991V24.996Z"/><path fill="#262626" d="M100 0H75.004v24.996H100V0Z"/><path fill="#FFBE99" d="m49.991 75.004 25.013-25.013H100v25.013L75.004 100H49.991V75.004Z"/><path fill="#262626" d="M100 49.992H75.004v24.995H100V49.992Z"/><path fill="#FFBE99" d="M49.991 124.996 75.004 100H100v24.996l-24.996 24.995H49.991v-24.995Z"/><path fill="#262626" d="M100 100H75.004v24.996H100V100Z"/><path fill="#FFBE99" d="M100 24.996 124.996 0h24.995v24.996L124.996 49.99H100V24.996Z"/><path fill="#262626" d="M149.992 0h-24.996v24.996h24.996V0Z"/><path fill="#FFBE99" d="M149.991 24.996 174.987 0H200v24.996L174.987 49.99h-24.996V24.996Z"/><path fill="#262626" d="M199.983 0h-24.996v24.996h24.996V0Z"/><path fill="#FFBE99" d="m100 75.004 24.996-25.013h24.995v25.013L124.996 100H100V75.004Z"/><path fill="#262626" d="M149.992 49.992h-24.996v24.995h24.996V49.992Z"/></g><defs><clipPath id="a"><path fill="#fff" d="M0 0h200v200H0z"/></clipPath></defs></svg>