<svg xmlns="http://www.w3.org/2000/svg" width="88" height="88" fill="none"><g clip-path="url(#a)"><path fill="#FFDECC" d="M58.21 14.895 72.76.345h14.55v14.55l-14.55 14.55H58.21v-14.55Z"/><path fill="#FF8D4D" d="M87.31.345H72.76v14.55h14.55V.345Z"/><path fill="#FFDECC" d="m58.21 44.005 14.55-14.56h14.55v14.56l-14.55 14.55H58.21v-14.55Z"/><path fill="#FF8D4D" d="M87.31 29.445H72.76v14.55h14.55v-14.55Z"/><path fill="#FFDECC" d="M29.1 14.895 43.66.345h14.55v14.55l-14.55 14.55H29.1v-14.55Z"/><path fill="#FF8D4D" d="M58.21.345H43.66v14.55h14.55V.345Z"/><path fill="#FFDECC" d="m29.1 44.005 14.56-14.56h14.55v14.56l-14.55 14.55H29.1v-14.55Z"/><path fill="#FF8D4D" d="M58.21 29.445H43.66v14.55h14.55v-14.55Z"/><path fill="#FFDECC" d="M0 14.895 14.55.345H29.1v14.55l-14.55 14.55H0v-14.55Z"/><path fill="#FF8D4D" d="M29.1.345H14.55v14.55H29.1V.345Z"/><path fill="#FFDECC" d="m0 44.005 14.55-14.56H29.1v14.56l-14.55 14.55H0v-14.55Z"/><path fill="#FF8D4D" d="M29.1 29.445H14.55v14.55H29.1v-14.55Z"/><path fill="#FFDECC" d="m58.21 73.105 14.55-14.55h14.55v14.55l-14.55 14.55H58.21v-14.55Z"/><path fill="#FF8D4D" d="M87.31 58.555H72.76v14.55h14.55v-14.55Z"/><path fill="#FFDECC" d="m29.1 73.105 14.56-14.55h14.55v14.55l-14.55 14.55H29.1v-14.55Z"/><path fill="#FF8D4D" d="M58.21 58.555H43.66v14.55h14.55v-14.55Z"/><path fill="#FFDECC" d="m0 73.105 14.55-14.55H29.1v14.55l-14.55 14.55H0v-14.55Z"/><path fill="#FF8D4D" d="M29.1 58.555H14.55v14.55H29.1v-14.55Z"/></g><defs><clipPath id="a"><path fill="#fff" d="M0 .345h87.31v87.31H0z"/></clipPath></defs></svg>