<svg xmlns="http://www.w3.org/2000/svg" width="569" height="618" fill="none"><g opacity=".9" shape-rendering="crispEdges"><g filter="url(#a)"><path fill="#FFF5F0" fill-opacity=".5" d="M170.26 459.468c15.88-1.085 27.874-14.839 26.789-30.719-1.086-15.88-14.839-27.874-30.719-26.788-15.881 1.085-27.874 14.838-26.789 30.719 1.086 15.88 14.839 27.873 30.719 26.788Z"/><path stroke="#262626" stroke-width="2" d="M170.328 460.466c16.432-1.123 28.841-15.354 27.718-31.785-1.123-16.431-15.353-28.841-31.785-27.718-16.431 1.123-28.841 15.354-27.717 31.785 1.123 16.431 15.353 28.841 31.784 27.718Z"/></g><g filter="url(#b)"><path fill="#FFF5F0" fill-opacity=".5" d="M252.863 510.449c15.338 0 27.772-12.434 27.772-27.772s-12.434-27.772-27.772-27.772c-15.339 0-27.772 12.434-27.772 27.772s12.433 27.772 27.772 27.772Z"/><path stroke="#262626" stroke-width="2" d="M252.863 511.449c15.89 0 28.772-12.882 28.772-28.772 0-15.89-12.882-28.772-28.772-28.772-15.891 0-28.772 12.882-28.772 28.772 0 15.89 12.881 28.772 28.772 28.772Z"/></g><g filter="url(#c)"><path fill="#FFF5F0" fill-opacity=".5" d="M321.706 490.773c0-14.767 11.956-26.723 26.723-26.723s26.724 11.956 26.724 26.723-11.957 26.723-26.724 26.723-26.723-11.956-26.723-26.723Z"/><path stroke="#262626" stroke-width="2" d="M348.429 463.05c-15.319 0-27.723 12.404-27.723 27.723 0 15.32 12.404 27.723 27.723 27.723 15.32 0 27.724-12.403 27.724-27.723 0-15.319-12.404-27.723-27.724-27.723Z"/></g><g filter="url(#d)"><path fill="#FFF5F0" fill-opacity=".5" d="M413.286 455.156c0-14.179 11.495-25.716 25.716-25.716 14.222 0 25.717 11.495 25.717 25.716 0 14.222-11.495 25.717-25.717 25.717-14.221 0-25.716-11.495-25.716-25.717Z"/><path stroke="#262626" stroke-width="2" d="M439.002 428.44c-14.775 0-26.716 11.985-26.716 26.716 0 14.774 11.942 26.717 26.716 26.717 14.774 0 26.717-11.943 26.717-26.717s-11.943-26.716-26.717-26.716Z"/></g><g filter="url(#e)"><path fill="#FFF5F0" fill-opacity=".5" d="M481.877 380.189c0-13.634 11.034-24.668 24.668-24.668 13.634 0 24.668 11.034 24.668 24.668 0 13.634-11.034 24.667-24.668 24.667-13.634 0-24.668-11.033-24.668-24.667Z"/><path stroke="#262626" stroke-width="2" d="M506.545 354.521c-14.187 0-25.668 11.481-25.668 25.668 0 14.186 11.481 25.667 25.668 25.667s25.668-11.481 25.668-25.667c0-14.187-11.481-25.668-25.668-25.668Z"/></g><g filter="url(#f)"><path fill="#FFF5F0" fill-opacity=".5" d="M512.125 287.77c0-13.047 10.571-23.619 23.618-23.619 13.047 0 23.619 10.572 23.619 23.619s-10.572 23.618-23.619 23.618-23.618-10.571-23.618-23.618Z"/><path stroke="#262626" stroke-width="2" d="M535.743 263.151c-13.599 0-24.618 11.019-24.618 24.619 0 13.599 11.019 24.618 24.618 24.618 13.6 0 24.619-11.019 24.619-24.618 0-13.6-11.019-24.619-24.619-24.619Z"/></g><g filter="url(#g)"><path fill="#FFF5F0" fill-opacity=".5" d="M502.979 192.204c0-12.502 10.111-22.612 22.612-22.612 12.502 0 22.612 10.11 22.612 22.612 0 12.501-10.11 22.612-22.612 22.612-12.501 0-22.612-10.111-22.612-22.612Z"/><path stroke="#262626" stroke-width="2" d="M525.591 168.592c-13.054 0-23.612 10.558-23.612 23.612 0 13.054 10.558 23.612 23.612 23.612 13.054 0 23.612-10.558 23.612-23.612 0-13.054-10.558-23.612-23.612-23.612Z"/></g><g filter="url(#h)"><path fill="#FFF5F0" fill-opacity=".5" d="M454.441 106.538c0-11.914 9.649-21.563 21.563-21.563s21.563 9.649 21.563 21.563c0 11.915-9.649 21.563-21.563 21.563s-21.563-9.648-21.563-21.563Z"/><path stroke="#262626" stroke-width="2" d="M476.004 83.975c-12.467 0-22.563 10.097-22.563 22.563 0 12.467 10.096 22.563 22.563 22.563 12.466 0 22.563-10.096 22.563-22.563 0-12.466-10.097-22.563-22.563-22.563Z"/></g><g filter="url(#i)"><path fill="#FFF5F0" fill-opacity=".5" d="M374.607 46.715c0-11.327 9.187-20.514 20.514-20.514s20.515 9.187 20.515 20.514-9.188 20.515-20.515 20.515-20.514-9.188-20.514-20.515Z"/><path stroke="#262626" stroke-width="2" d="M395.121 25.2c-11.879 0-21.514 9.636-21.514 21.515 0 11.88 9.635 21.515 21.514 21.515 11.88 0 21.515-9.636 21.515-21.515 0-11.879-9.635-21.514-21.515-21.514Z"/></g><g filter="url(#j)"><path fill="#FFF5F0" fill-opacity=".5" d="M282.061 22.258c0-10.782 8.726-19.508 19.508-19.508 10.781 0 19.507 8.726 19.507 19.508 0 10.781-8.726 19.507-19.507 19.507-10.782 0-19.508-8.726-19.508-19.508Z"/><path stroke="#262626" stroke-width="2" d="M301.569 1.75c-11.334 0-20.508 9.174-20.508 20.508 0 11.333 9.174 20.507 20.508 20.507s20.507-9.174 20.507-20.508c0-11.333-9.173-20.507-20.507-20.507Z"/></g><g filter="url(#k)"><path fill="#FFF5F0" fill-opacity=".5" d="M187.502 33.249c0-10.195 8.265-18.459 18.459-18.459 10.194 0 18.459 8.265 18.459 18.459 0 10.194-8.265 18.459-18.459 18.459-10.194 0-18.459-8.265-18.459-18.46Z"/><path stroke="#262626" stroke-width="2" d="M205.961 13.79c-10.747 0-19.459 8.712-19.459 19.459 0 10.746 8.712 19.459 19.459 19.459 10.746 0 19.459-8.713 19.459-19.46 0-10.746-8.713-19.458-19.459-19.458Z"/></g><g filter="url(#l)"><path fill="#FFF5F0" fill-opacity=".5" d="M101.544 79.73c0-9.648 7.803-17.45 17.452-17.45 9.649 0 17.452 7.802 17.452 17.45 0 9.65-7.803 17.453-17.452 17.453-9.649 0-17.452-7.803-17.452-17.452Z"/><path stroke="#262626" stroke-width="2" d="M118.996 61.28c-10.201 0-18.452 8.25-18.452 18.45 0 10.202 8.251 18.453 18.452 18.453 10.201 0 18.452-8.25 18.452-18.452 0-10.201-8.251-18.452-18.452-18.452Z"/></g><g filter="url(#m)"><path fill="#FFF5F0" fill-opacity=".5" d="M36.728 156.922c0-9.061 7.342-16.403 16.403-16.403 9.062 0 16.403 7.342 16.403 16.403 0 9.062-7.341 16.403-16.403 16.403-9.061 0-16.403-7.341-16.403-16.403Z"/><path stroke="#262626" stroke-width="2" d="M53.131 139.519c-9.614 0-17.403 7.789-17.403 17.403 0 9.614 7.79 17.403 17.403 17.403 9.614 0 17.403-7.789 17.403-17.403 0-9.614-7.789-17.403-17.403-17.403Z"/></g><g filter="url(#n)"><path fill="#FFF5F0" fill-opacity=".5" d="M3.503 248.167c0-8.474 6.88-15.354 15.354-15.354s15.354 6.88 15.354 15.354-6.88 15.354-15.354 15.354-15.354-6.88-15.354-15.354Z"/><path stroke="#262626" stroke-width="2" d="M18.857 231.813c-9.026 0-16.354 7.327-16.354 16.354 0 9.026 7.328 16.354 16.354 16.354 9.027 0 16.354-7.328 16.354-16.354 0-9.027-7.327-16.354-16.354-16.354Z"/></g><g filter="url(#o)"><path fill="#FFF5F0" fill-opacity=".5" d="M2.202 344.32c0-7.929 6.419-14.347 14.348-14.347 7.928 0 14.347 6.418 14.347 14.347 0 7.929-6.418 14.348-14.347 14.348-7.93 0-14.348-6.419-14.348-14.348Z"/><path stroke="#262626" stroke-width="2" d="M16.55 328.973c-8.481 0-15.348 6.866-15.348 15.347s6.867 15.348 15.348 15.348c8.48 0 15.347-6.867 15.347-15.348 0-8.481-6.866-15.347-15.347-15.347Z"/></g><g filter="url(#p)"><path fill="#FFF5F0" fill-opacity=".5" d="M32.869 436.824c0-7.342 5.957-13.299 13.299-13.299 7.341 0 13.298 5.957 13.298 13.299 0 7.341-5.957 13.298-13.298 13.298-7.342 0-13.3-5.957-13.3-13.298Z"/><path stroke="#262626" stroke-width="2" d="M46.168 422.525c-7.894 0-14.3 6.405-14.3 14.299 0 7.894 6.406 14.298 14.3 14.298 7.894 0 14.298-6.404 14.298-14.298s-6.404-14.299-14.298-14.299Z"/></g><g filter="url(#q)"><path fill="#FFF5F0" fill-opacity=".5" d="M95.335 516.951c0-6.754 5.495-12.25 12.249-12.25 6.754 0 12.25 5.496 12.25 12.25 0 6.755-5.496 12.25-12.25 12.25s-12.25-5.495-12.25-12.25Z"/><path stroke="#262626" stroke-width="2" d="M107.584 503.701c-7.306 0-13.25 5.944-13.25 13.25 0 7.307 5.944 13.25 13.25 13.25 7.307 0 13.25-5.943 13.25-13.25 0-7.306-5.943-13.25-13.25-13.25Z"/></g><g filter="url(#r)"><path fill="#FFF5F0" fill-opacity=".5" d="M179.49 572.789c0-6.209 5.034-11.243 11.243-11.243 6.209 0 11.243 5.034 11.243 11.243 0 6.209-5.034 11.243-11.243 11.243-6.209 0-11.243-5.034-11.243-11.243Z"/><path stroke="#262626" stroke-width="2" d="M190.733 560.546c-6.761 0-12.243 5.482-12.243 12.243s5.482 12.243 12.243 12.243 12.243-5.482 12.243-12.243-5.482-12.243-12.243-12.243Z"/></g><g filter="url(#s)"><path fill="#FFF5F0" fill-opacity=".5" d="M273.713 599.806c0-5.622 4.573-10.194 10.194-10.194 5.622 0 10.194 4.572 10.194 10.194 0 5.621-4.572 10.194-10.194 10.194-5.621 0-10.194-4.573-10.194-10.194Z"/><path stroke="#262626" stroke-width="2" d="M283.907 588.612c-6.174 0-11.194 5.02-11.194 11.194 0 6.174 5.02 11.194 11.194 11.194 6.174 0 11.194-5.02 11.194-11.194 0-6.174-5.02-11.194-11.194-11.194Z"/></g><g filter="url(#t)"><path fill="#FFF5F0" fill-opacity=".5" d="M380.145 607.231a9.145 9.145 0 0 0 9.145-9.145 9.145 9.145 0 1 0-9.145 9.145Z"/><path stroke="#262626" stroke-width="2" d="M380.145 608.231c5.603 0 10.145-4.542 10.145-10.145s-4.542-10.146-10.145-10.146S370 592.483 370 598.086c0 5.603 4.542 10.145 10.145 10.145Z"/></g><g filter="url(#u)"><path fill="#FFF5F0" fill-opacity=".5" d="M464.342 567.545c0-4.489 3.65-8.139 8.139-8.139 4.488 0 8.138 3.65 8.138 8.139 0 4.488-3.65 8.138-8.138 8.138-4.489 0-8.139-3.65-8.139-8.138Z"/><path stroke="#262626" stroke-width="2" d="M472.481 558.406c-5.041 0-9.139 4.098-9.139 9.139 0 5.041 4.098 9.138 9.139 9.138 5.041 0 9.138-4.097 9.138-9.138 0-5.041-4.097-9.139-9.138-9.139Z"/></g><g filter="url(#v)"><path fill="#FFF5F0" fill-opacity=".5" d="M546.819 508.268c0-3.902 3.188-7.09 7.089-7.09 3.902 0 7.09 3.188 7.09 7.09 0 3.901-3.188 7.089-7.09 7.089-3.901 0-7.089-3.188-7.089-7.089Z"/><path stroke="#262626" stroke-width="2" d="M553.908 500.178c-4.453 0-8.089 3.636-8.089 8.09 0 4.453 3.636 8.089 8.089 8.089 4.454 0 8.09-3.636 8.09-8.089 0-4.454-3.636-8.09-8.09-8.09Z"/></g></g><defs><filter id="l" width="44.904" height="44.904" x="99.544" y="60.279" color-interpolation-filters="sRGB" filterUnits="userSpaceOnUse"><feFlood flood-opacity="0" result="BackgroundImageFix"/><feColorMatrix in="SourceAlpha" result="hardAlpha" values="0 0 0 0 0 0 0 0 0 0 0 0 0 0 0 0 0 0 127 0"/><feOffset dx="6" dy="6"/><feComposite in2="hardAlpha" operator="out"/><feColorMatrix values="0 0 0 0 0.0980392 0 0 0 0 0.0980392 0 0 0 0 0.0980392 0 0 0 1 0"/><feBlend in2="BackgroundImageFix" result="effect1_dropShadow_101_73"/><feBlend in="SourceGraphic" in2="effect1_dropShadow_101_73" result="shape"/></filter><filter id="a" width="67.644" height="67.644" x="137.473" y="399.892" color-interpolation-filters="sRGB" filterUnits="userSpaceOnUse"><feFlood flood-opacity="0" result="BackgroundImageFix"/><feColorMatrix in="SourceAlpha" result="hardAlpha" values="0 0 0 0 0 0 0 0 0 0 0 0 0 0 0 0 0 0 127 0"/><feOffset dx="6" dy="6"/><feComposite in2="hardAlpha" operator="out"/><feColorMatrix values="0 0 0 0 0.0980392 0 0 0 0 0.0980392 0 0 0 0 0.0980392 0 0 0 1 0"/><feBlend in2="BackgroundImageFix" result="effect1_dropShadow_101_73"/><feBlend in="SourceGraphic" in2="effect1_dropShadow_101_73" result="shape"/></filter><filter id="c" width="63.446" height="63.446" x="319.706" y="462.05" color-interpolation-filters="sRGB" filterUnits="userSpaceOnUse"><feFlood flood-opacity="0" result="BackgroundImageFix"/><feColorMatrix in="SourceAlpha" result="hardAlpha" values="0 0 0 0 0 0 0 0 0 0 0 0 0 0 0 0 0 0 127 0"/><feOffset dx="6" dy="6"/><feComposite in2="hardAlpha" operator="out"/><feColorMatrix values="0 0 0 0 0.0980392 0 0 0 0 0.0980392 0 0 0 0 0.0980392 0 0 0 1 0"/><feBlend in2="BackgroundImageFix" result="effect1_dropShadow_101_73"/><feBlend in="SourceGraphic" in2="effect1_dropShadow_101_73" result="shape"/></filter><filter id="d" width="61.432" height="61.433" x="411.286" y="427.44" color-interpolation-filters="sRGB" filterUnits="userSpaceOnUse"><feFlood flood-opacity="0" result="BackgroundImageFix"/><feColorMatrix in="SourceAlpha" result="hardAlpha" values="0 0 0 0 0 0 0 0 0 0 0 0 0 0 0 0 0 0 127 0"/><feOffset dx="6" dy="6"/><feComposite in2="hardAlpha" operator="out"/><feColorMatrix values="0 0 0 0 0.0980392 0 0 0 0 0.0980392 0 0 0 0 0.0980392 0 0 0 1 0"/><feBlend in2="BackgroundImageFix" result="effect1_dropShadow_101_73"/><feBlend in="SourceGraphic" in2="effect1_dropShadow_101_73" result="shape"/></filter><filter id="e" width="59.335" height="59.335" x="479.877" y="353.521" color-interpolation-filters="sRGB" filterUnits="userSpaceOnUse"><feFlood flood-opacity="0" result="BackgroundImageFix"/><feColorMatrix in="SourceAlpha" result="hardAlpha" values="0 0 0 0 0 0 0 0 0 0 0 0 0 0 0 0 0 0 127 0"/><feOffset dx="6" dy="6"/><feComposite in2="hardAlpha" operator="out"/><feColorMatrix values="0 0 0 0 0.0980392 0 0 0 0 0.0980392 0 0 0 0 0.0980392 0 0 0 1 0"/><feBlend in2="BackgroundImageFix" result="effect1_dropShadow_101_73"/><feBlend in="SourceGraphic" in2="effect1_dropShadow_101_73" result="shape"/></filter><filter id="f" width="57.237" height="57.237" x="510.125" y="262.151" color-interpolation-filters="sRGB" filterUnits="userSpaceOnUse"><feFlood flood-opacity="0" result="BackgroundImageFix"/><feColorMatrix in="SourceAlpha" result="hardAlpha" values="0 0 0 0 0 0 0 0 0 0 0 0 0 0 0 0 0 0 127 0"/><feOffset dx="6" dy="6"/><feComposite in2="hardAlpha" operator="out"/><feColorMatrix values="0 0 0 0 0.0980392 0 0 0 0 0.0980392 0 0 0 0 0.0980392 0 0 0 1 0"/><feBlend in2="BackgroundImageFix" result="effect1_dropShadow_101_73"/><feBlend in="SourceGraphic" in2="effect1_dropShadow_101_73" result="shape"/></filter><filter id="g" width="55.224" height="55.224" x="500.979" y="167.592" color-interpolation-filters="sRGB" filterUnits="userSpaceOnUse"><feFlood flood-opacity="0" result="BackgroundImageFix"/><feColorMatrix in="SourceAlpha" result="hardAlpha" values="0 0 0 0 0 0 0 0 0 0 0 0 0 0 0 0 0 0 127 0"/><feOffset dx="6" dy="6"/><feComposite in2="hardAlpha" operator="out"/><feColorMatrix values="0 0 0 0 0.0980392 0 0 0 0 0.0980392 0 0 0 0 0.0980392 0 0 0 1 0"/><feBlend in2="BackgroundImageFix" result="effect1_dropShadow_101_73"/><feBlend in="SourceGraphic" in2="effect1_dropShadow_101_73" result="shape"/></filter><filter id="h" width="53.126" height="53.126" x="452.441" y="82.975" color-interpolation-filters="sRGB" filterUnits="userSpaceOnUse"><feFlood flood-opacity="0" result="BackgroundImageFix"/><feColorMatrix in="SourceAlpha" result="hardAlpha" values="0 0 0 0 0 0 0 0 0 0 0 0 0 0 0 0 0 0 127 0"/><feOffset dx="6" dy="6"/><feComposite in2="hardAlpha" operator="out"/><feColorMatrix values="0 0 0 0 0.0980392 0 0 0 0 0.0980392 0 0 0 0 0.0980392 0 0 0 1 0"/><feBlend in2="BackgroundImageFix" result="effect1_dropShadow_101_73"/><feBlend in="SourceGraphic" in2="effect1_dropShadow_101_73" result="shape"/></filter><filter id="i" width="51.029" height="51.029" x="372.607" y="24.201" color-interpolation-filters="sRGB" filterUnits="userSpaceOnUse"><feFlood flood-opacity="0" result="BackgroundImageFix"/><feColorMatrix in="SourceAlpha" result="hardAlpha" values="0 0 0 0 0 0 0 0 0 0 0 0 0 0 0 0 0 0 127 0"/><feOffset dx="6" dy="6"/><feComposite in2="hardAlpha" operator="out"/><feColorMatrix values="0 0 0 0 0.0980392 0 0 0 0 0.0980392 0 0 0 0 0.0980392 0 0 0 1 0"/><feBlend in2="BackgroundImageFix" result="effect1_dropShadow_101_73"/><feBlend in="SourceGraphic" in2="effect1_dropShadow_101_73" result="shape"/></filter><filter id="j" width="49.015" height="49.015" x="280.061" y=".75" color-interpolation-filters="sRGB" filterUnits="userSpaceOnUse"><feFlood flood-opacity="0" result="BackgroundImageFix"/><feColorMatrix in="SourceAlpha" result="hardAlpha" values="0 0 0 0 0 0 0 0 0 0 0 0 0 0 0 0 0 0 127 0"/><feOffset dx="6" dy="6"/><feComposite in2="hardAlpha" operator="out"/><feColorMatrix values="0 0 0 0 0.0980392 0 0 0 0 0.0980392 0 0 0 0 0.0980392 0 0 0 1 0"/><feBlend in2="BackgroundImageFix" result="effect1_dropShadow_101_73"/><feBlend in="SourceGraphic" in2="effect1_dropShadow_101_73" result="shape"/></filter><filter id="k" width="46.917" height="46.917" x="185.502" y="12.79" color-interpolation-filters="sRGB" filterUnits="userSpaceOnUse"><feFlood flood-opacity="0" result="BackgroundImageFix"/><feColorMatrix in="SourceAlpha" result="hardAlpha" values="0 0 0 0 0 0 0 0 0 0 0 0 0 0 0 0 0 0 127 0"/><feOffset dx="6" dy="6"/><feComposite in2="hardAlpha" operator="out"/><feColorMatrix values="0 0 0 0 0.0980392 0 0 0 0 0.0980392 0 0 0 0 0.0980392 0 0 0 1 0"/><feBlend in2="BackgroundImageFix" result="effect1_dropShadow_101_73"/><feBlend in="SourceGraphic" in2="effect1_dropShadow_101_73" result="shape"/></filter><filter id="b" width="65.544" height="65.544" x="223.091" y="452.905" color-interpolation-filters="sRGB" filterUnits="userSpaceOnUse"><feFlood flood-opacity="0" result="BackgroundImageFix"/><feColorMatrix in="SourceAlpha" result="hardAlpha" values="0 0 0 0 0 0 0 0 0 0 0 0 0 0 0 0 0 0 127 0"/><feOffset dx="6" dy="6"/><feComposite in2="hardAlpha" operator="out"/><feColorMatrix values="0 0 0 0 0.0980392 0 0 0 0 0.0980392 0 0 0 0 0.0980392 0 0 0 1 0"/><feBlend in2="BackgroundImageFix" result="effect1_dropShadow_101_73"/><feBlend in="SourceGraphic" in2="effect1_dropShadow_101_73" result="shape"/></filter><filter id="m" width="42.806" height="42.806" x="34.728" y="138.519" color-interpolation-filters="sRGB" filterUnits="userSpaceOnUse"><feFlood flood-opacity="0" result="BackgroundImageFix"/><feColorMatrix in="SourceAlpha" result="hardAlpha" values="0 0 0 0 0 0 0 0 0 0 0 0 0 0 0 0 0 0 127 0"/><feOffset dx="6" dy="6"/><feComposite in2="hardAlpha" operator="out"/><feColorMatrix values="0 0 0 0 0.0980392 0 0 0 0 0.0980392 0 0 0 0 0.0980392 0 0 0 1 0"/><feBlend in2="BackgroundImageFix" result="effect1_dropShadow_101_73"/><feBlend in="SourceGraphic" in2="effect1_dropShadow_101_73" result="shape"/></filter><filter id="n" width="40.709" height="40.709" x="1.503" y="230.813" color-interpolation-filters="sRGB" filterUnits="userSpaceOnUse"><feFlood flood-opacity="0" result="BackgroundImageFix"/><feColorMatrix in="SourceAlpha" result="hardAlpha" values="0 0 0 0 0 0 0 0 0 0 0 0 0 0 0 0 0 0 127 0"/><feOffset dx="6" dy="6"/><feComposite in2="hardAlpha" operator="out"/><feColorMatrix values="0 0 0 0 0.0980392 0 0 0 0 0.0980392 0 0 0 0 0.0980392 0 0 0 1 0"/><feBlend in2="BackgroundImageFix" result="effect1_dropShadow_101_73"/><feBlend in="SourceGraphic" in2="effect1_dropShadow_101_73" result="shape"/></filter><filter id="o" width="38.695" height="38.695" x=".202" y="327.973" color-interpolation-filters="sRGB" filterUnits="userSpaceOnUse"><feFlood flood-opacity="0" result="BackgroundImageFix"/><feColorMatrix in="SourceAlpha" result="hardAlpha" values="0 0 0 0 0 0 0 0 0 0 0 0 0 0 0 0 0 0 127 0"/><feOffset dx="6" dy="6"/><feComposite in2="hardAlpha" operator="out"/><feColorMatrix values="0 0 0 0 0.0980392 0 0 0 0 0.0980392 0 0 0 0 0.0980392 0 0 0 1 0"/><feBlend in2="BackgroundImageFix" result="effect1_dropShadow_101_73"/><feBlend in="SourceGraphic" in2="effect1_dropShadow_101_73" result="shape"/></filter><filter id="p" width="36.597" height="36.597" x="30.869" y="421.525" color-interpolation-filters="sRGB" filterUnits="userSpaceOnUse"><feFlood flood-opacity="0" result="BackgroundImageFix"/><feColorMatrix in="SourceAlpha" result="hardAlpha" values="0 0 0 0 0 0 0 0 0 0 0 0 0 0 0 0 0 0 127 0"/><feOffset dx="6" dy="6"/><feComposite in2="hardAlpha" operator="out"/><feColorMatrix values="0 0 0 0 0.0980392 0 0 0 0 0.0980392 0 0 0 0 0.0980392 0 0 0 1 0"/><feBlend in2="BackgroundImageFix" result="effect1_dropShadow_101_73"/><feBlend in="SourceGraphic" in2="effect1_dropShadow_101_73" result="shape"/></filter><filter id="q" width="34.5" height="34.5" x="93.335" y="502.701" color-interpolation-filters="sRGB" filterUnits="userSpaceOnUse"><feFlood flood-opacity="0" result="BackgroundImageFix"/><feColorMatrix in="SourceAlpha" result="hardAlpha" values="0 0 0 0 0 0 0 0 0 0 0 0 0 0 0 0 0 0 127 0"/><feOffset dx="6" dy="6"/><feComposite in2="hardAlpha" operator="out"/><feColorMatrix values="0 0 0 0 0.0980392 0 0 0 0 0.0980392 0 0 0 0 0.0980392 0 0 0 1 0"/><feBlend in2="BackgroundImageFix" result="effect1_dropShadow_101_73"/><feBlend in="SourceGraphic" in2="effect1_dropShadow_101_73" result="shape"/></filter><filter id="r" width="32.486" height="32.486" x="177.49" y="559.546" color-interpolation-filters="sRGB" filterUnits="userSpaceOnUse"><feFlood flood-opacity="0" result="BackgroundImageFix"/><feColorMatrix in="SourceAlpha" result="hardAlpha" values="0 0 0 0 0 0 0 0 0 0 0 0 0 0 0 0 0 0 127 0"/><feOffset dx="6" dy="6"/><feComposite in2="hardAlpha" operator="out"/><feColorMatrix values="0 0 0 0 0.0980392 0 0 0 0 0.0980392 0 0 0 0 0.0980392 0 0 0 1 0"/><feBlend in2="BackgroundImageFix" result="effect1_dropShadow_101_73"/><feBlend in="SourceGraphic" in2="effect1_dropShadow_101_73" result="shape"/></filter><filter id="s" width="30.388" height="30.389" x="271.713" y="587.612" color-interpolation-filters="sRGB" filterUnits="userSpaceOnUse"><feFlood flood-opacity="0" result="BackgroundImageFix"/><feColorMatrix in="SourceAlpha" result="hardAlpha" values="0 0 0 0 0 0 0 0 0 0 0 0 0 0 0 0 0 0 127 0"/><feOffset dx="6" dy="6"/><feComposite in2="hardAlpha" operator="out"/><feColorMatrix values="0 0 0 0 0.0980392 0 0 0 0 0.0980392 0 0 0 0 0.0980392 0 0 0 1 0"/><feBlend in2="BackgroundImageFix" result="effect1_dropShadow_101_73"/><feBlend in="SourceGraphic" in2="effect1_dropShadow_101_73" result="shape"/></filter><filter id="t" width="28.291" height="28.291" x="369" y="586.94" color-interpolation-filters="sRGB" filterUnits="userSpaceOnUse"><feFlood flood-opacity="0" result="BackgroundImageFix"/><feColorMatrix in="SourceAlpha" result="hardAlpha" values="0 0 0 0 0 0 0 0 0 0 0 0 0 0 0 0 0 0 127 0"/><feOffset dx="6" dy="6"/><feComposite in2="hardAlpha" operator="out"/><feColorMatrix values="0 0 0 0 0.0980392 0 0 0 0 0.0980392 0 0 0 0 0.0980392 0 0 0 1 0"/><feBlend in2="BackgroundImageFix" result="effect1_dropShadow_101_73"/><feBlend in="SourceGraphic" in2="effect1_dropShadow_101_73" result="shape"/></filter><filter id="u" width="26.277" height="26.277" x="462.342" y="557.406" color-interpolation-filters="sRGB" filterUnits="userSpaceOnUse"><feFlood flood-opacity="0" result="BackgroundImageFix"/><feColorMatrix in="SourceAlpha" result="hardAlpha" values="0 0 0 0 0 0 0 0 0 0 0 0 0 0 0 0 0 0 127 0"/><feOffset dx="6" dy="6"/><feComposite in2="hardAlpha" operator="out"/><feColorMatrix values="0 0 0 0 0.0980392 0 0 0 0 0.0980392 0 0 0 0 0.0980392 0 0 0 1 0"/><feBlend in2="BackgroundImageFix" result="effect1_dropShadow_101_73"/><feBlend in="SourceGraphic" in2="effect1_dropShadow_101_73" result="shape"/></filter><filter id="v" width="24.18" height="24.18" x="544.819" y="499.178" color-interpolation-filters="sRGB" filterUnits="userSpaceOnUse"><feFlood flood-opacity="0" result="BackgroundImageFix"/><feColorMatrix in="SourceAlpha" result="hardAlpha" values="0 0 0 0 0 0 0 0 0 0 0 0 0 0 0 0 0 0 127 0"/><feOffset dx="6" dy="6"/><feComposite in2="hardAlpha" operator="out"/><feColorMatrix values="0 0 0 0 0.0980392 0 0 0 0 0.0980392 0 0 0 0 0.0980392 0 0 0 1 0"/><feBlend in2="BackgroundImageFix" result="effect1_dropShadow_101_73"/><feBlend in="SourceGraphic" in2="effect1_dropShadow_101_73" result="shape"/></filter></defs></svg>