<svg xmlns="http://www.w3.org/2000/svg" width="107" height="80" fill="none"><g clip-path="url(#a)"><path fill="#262626" d="M96.836 27.956c-3.078-1.036-6.069-2.377-9.198-3.031-7.922-1.654-15.49-.327-22.166 4.259-2.526 1.737-4.386 4.47-6.469 6.82-1.795 2.028-3.474 4.161-5.352 6.429-1.959-2.319-3.736-4.59-5.695-6.697-2.376-2.555-4.524-5.604-7.435-7.319-8.943-5.28-18.354-5.338-27.799-1.054-.643.29-1.272.614-2.35 1.141 1.173-2.449 2.147-4.488 3.128-6.526.785-1.636 1.751-3.205 2.326-4.91 1.671-4.938 5.748-6.988 10.225-7.889 5.775-1.159 11.502-.494 16.382 3.3.81.628 1.432 1.759 1.704 2.772.563 2.083.832 4.248 1.308 6.832 1.294-.338 2.522-.476 3.583-.974 3.235-1.512 6.378-1.617 9.558.12.603.33 1.33.476 2.016.6 1.181.214 1.73-.255 1.817-1.541.113-1.683.33-3.387.77-5.008.266-.98.847-2.038 1.603-2.703 4.648-4.1 10.215-4.19 15.931-3.376 1.127.16 2.235.52 3.322.883 3.143 1.054 5.625 2.755 7.006 6.025 1.475 3.5 3.365 6.82 5.065 10.226.284.567.516 1.155.723 1.624l-.003-.003Z"/><path fill="#FF9E66" d="M51.172 54.694c-.061 14.128-11.337 25.339-25.451 25.302C11.65 79.96.276 68.596.287 54.592c.011-14.03 11.68-25.626 25.623-25.47 14.106.156 25.32 11.512 25.262 25.572ZM25.757 71.26c9.397 0 16.988-7.576 16.974-16.944-.015-9.42-7.562-16.93-17.003-16.923-9.263.007-16.814 7.569-16.865 16.886-.05 9.427 7.464 16.978 16.89 16.981h.004ZM56.118 54.581c.007-14.06 11.349-25.437 25.376-25.459C95.45 29.1 106.924 40.525 107 54.526c.08 14.05-11.418 25.514-25.543 25.478-14.125-.04-25.346-11.298-25.339-25.42v-.003Zm42.306-.225c0-9.492-7.46-16.97-16.92-16.96-9.331.008-16.973 7.686-16.948 17.029.026 9.277 7.595 16.825 16.898 16.84 9.451.017 16.966-7.476 16.966-16.91h.004Z"/><path fill="#262626" d="M83.489 4.699C77.228 3.122 71.385 3.51 65.701 6.174 66.24 3.55 69.182.996 72.264.371c4.47-.909 8.729.647 11.225 4.331V4.7ZM24.027 4.143C26.16 1.41 29.046-.185 32.661.018c4.016.225 7.076 2.18 9.023 5.745C38.763 5.131 35.91 4.23 33 3.968c-2.958-.269-5.97.091-8.972.175Z"/></g><defs><clipPath id="a"><path fill="#fff" d="M.287 0H107v80H.287z"/></clipPath></defs></svg>