<svg xmlns="http://www.w3.org/2000/svg" width="81" height="80" fill="none"><g clip-path="url(#a)"><path fill="#262626" d="M49.941 48.574c3.143 5.74 6.21 11.336 9.272 16.931 2.27 4.152 4.538 8.306 6.795 12.463.821 1.511.518 2.027-1.191 2.027-16.097.005-32.194.005-48.29 0-1.573 0-1.916-.534-1.192-1.863 5.601-10.267 11.213-20.53 16.822-30.79.085-.155.206-.29.367-.512 1.396.81 2.198 3.054 4.082 2.464 1.51-.475 2.767-1.758 4.447-2.89.73.788 1.666 1.854 2.662 2.86 2.117 2.142 3.263 2.142 5.391.07.22-.215.454-.414.835-.757v-.003Z"/><path fill="#FF9E66" d="M45.081 2.775h22.913c-.33.488-.51.813-.746 1.092-1.473 1.74-2.97 3.457-4.439 5.198-1.301 1.546-1.282 3.03.033 4.581 1.671 1.967 3.354 3.924 5.233 6.114H45.08V2.775Z"/><path fill="#262626" d="M11.807 79.898H.42l13.797-24.663c1.971 1.482 4.139 1.368 6.502-.34.04.018.089.029.12.056 1.783 1.508 2.117 3.278 1.002 5.31-2.955 5.4-5.934 10.786-8.835 16.213-.545 1.02-.783 2.203-1.2 3.421v.003ZM60.472 54.648c2.45 1.992 4.696 2.185 6.739.576l13.788 24.66H69.653c-.464-1.271-.757-2.52-1.345-3.614a1380.454 1380.454 0 0 0-9.68-17.731c-.467-.843-.507-1.374.272-2.03.603-.506 1.038-1.218 1.572-1.864v.002Z"/><path fill="#FF9E66" d="M48.557 46.03c-.717.62-1.39 1.203-2.279 1.975-1.07-1.135-2.19-2.383-3.376-3.566-1.492-1.487-2.93-1.444-4.412.048-.652.655-1.315 1.304-2.217 2.2-.636-.74-1.288-1.414-1.819-2.17-.193-.277-.266-.843-.113-1.128a542.227 542.227 0 0 1 5.311-9.736c.65-1.162 1.508-1.124 2.177.089 2.216 4.015 4.406 8.043 6.728 12.29v-.002ZM42.083 30.017h-2.79v-1.34c0-8.807 0-17.615.002-26.42 0-.446-.1-.985.11-1.312.276-.427.827-.964 1.234-.945.489.024.999.537 1.399.94.169.168.099.598.099.909.005 9.12.003 18.24 0 27.36 0 .26-.035.518-.056.808h.002Z"/><path fill="#262626" d="M20.633 43.846c.475.727.757 1.108.988 1.519 1.164 2.06 2.31 4.13 3.47 6.19.57 1.017.493 2.007-.231 2.972-1.24-.905-2.364-2.11-3.747-2.636-1.709-.646-2.587 1.19-3.94 2.185-.41-.537-.812-1.06-1.33-1.74 1.479-2.621 3.056-5.417 4.79-8.496v.006ZM65.674 52.509l-1.377 1.505c-2.42-1.742-4.971-1.535-7.651.623-.913-.929-1.111-1.836-.352-3.049 1.254-2.005 2.335-4.114 3.497-6.175.234-.413.505-.805.99-1.573.931 1.627 1.718 2.982 2.488 4.345.789 1.398 1.565 2.807 2.405 4.324Z"/></g><defs><clipPath id="a"><path fill="#fff" d="M.42 0H81v80H.42z"/></clipPath></defs></svg>