<svg xmlns="http://www.w3.org/2000/svg" width="81" height="80" fill="none"><rect width="79" height="79" x="1.167" y=".5" fill="#FFF5F0" rx="39.5"/><rect width="79" height="79" x="1.167" y=".5" stroke="#333" rx="39.5"/><mask id="a" width="57" height="58" x="12" y="11" maskUnits="userSpaceOnUse" style="mask-type:luminance"><path fill="#fff" d="M68.795 11.875H12.428v56.367h56.367V11.875Z"/></mask><g mask="url(#a)"><path fill="#262626" fill-rule="evenodd" d="M44.79 15.143c-.345-.576-.863-1.093-1.61-1.15l.23.344.115.23.402.748.115.115c.288.69.46 1.38.518 2.128 0 .403-.115.748-.23 1.15-.173-.977-.69-1.725-1.265-2.415a5.578 5.578 0 0 0-2.186-1.38 6.096 6.096 0 0 0-3.566-.288c-.46.057-.863.287-1.323.518-.403.23-.748.575-1.093.862a8.225 8.225 0 0 0-1.898 2.934c-.345.862-.748 1.725-1.265 2.53-.403.69-.978 1.323-1.553 1.841l-1.61 1.093a41.143 41.143 0 0 0-2.762 1.898c-1.323 1.15-2.3 2.703-2.818 4.429-.23.863-.403 1.783-.288 2.646.115.46.23.862.46 1.265v.46c-.23 1.093-.287 2.243.058 3.336a9.547 9.547 0 0 0 1.898 3.509l.805 1.092c.345.576.633 1.208.69 1.899 0 .517-.172.977-.575 1.322a2.245 2.245 0 0 1-2.3.403l-.288-.172-.23-.116-.058.115c-.057.058-.114.173-.057.288l.403.748c.345.46.747.805 1.265 1.035.403.23.863.288 1.323.173.287-.058.517-.173.748-.345 0 .575.172 1.15.345 1.668.23.632.575 1.265 1.092 1.725.46.46 1.036.69 1.611.863.518.172 1.035.172 1.553.057.115-.057.115-.115.115-.23l-.172-.402-.058-.115-.46-1.15c1.035.747 2.243 1.092 3.508 1.207a5.74 5.74 0 0 0 2.416-.345c.173-.057.403-.172.46-.345.115-.173 0-.345-.057-.518l-.23-.862-.058-.173c.518.345 1.036.575 1.668.575.69 0 1.438-.288 1.84-.863l.173-.057a31.113 31.113 0 0 0-1.783-7.42 18.519 18.519 0 0 0-1.438-2.99l-.115-.346c0-.863-.115-1.84-.632-2.53.402-.633.46-1.439.517-2.129 0-.575 0-1.15-.287-1.668l.23-.057.46-.058c.115-.057.172-.23.23-.345a20.133 20.133 0 0 1 1.725-4.601l.403-.806c.115-.172.115-.345.173-.575v-.23l-.115-.805-.058-.518 1.15.345h.576c2.906-.5 5.87-.578 8.8-.23l.402.115.288.115c.115 0 .288-.057.345-.172.173-.173.23-.403.288-.633l.172.115.518.403.402.23c.266.05.536.069.806.057l.92.92.058.058a23.18 23.18 0 0 1 3.105 4.544c.23.173.518.058.633-.172.403-.92.46-1.956.288-2.934a7.247 7.247 0 0 0-2.186-3.796c-.345-.403-.805-.748-1.265-1.093l-2.416-1.265a17.531 17.531 0 0 0-3.739-1.15c-1.438-.288-2.876-.288-4.371-.23.633-.633.805-1.496.805-2.359 0-.748-.287-1.438-.69-2.07ZM29.95 25.38c.69-.806 1.381-1.61 1.899-2.589l-.92.978c-.576.518-1.208.863-1.841 1.265l-.633.403-.172.058c-.748.46-1.553.977-2.186 1.553-1.266 1.092-2.128 2.588-2.53 4.198-.173.863-.288 1.783-.058 2.646.345-1.035.862-2.07 1.438-2.99.747-1.151 1.668-2.244 2.645-3.222l1.093-1.093 1.266-1.207Z" clip-rule="evenodd"/><path fill="#262626" d="M46.458 20.378c1.61.058 3.22.345 4.831.863a11.56 11.56 0 0 1 5.752 3.738 10.406 10.406 0 0 1 2.013 4.947c.31 1.921.35 3.877.115 5.81l-.287 1.955-.23 1.15c-.058.115-.058.115-.173.115-.115-.23-.115-.46-.115-.69-.058-.863.058-1.668.115-2.53.057-1.381.172-2.762.057-4.142l-.345-2.588c-.402-1.61-1.15-3.106-2.3-4.314a11.936 11.936 0 0 0-3.624-2.473 18.354 18.354 0 0 0-3.854-1.093c-1.035-.173-2.07-.23-3.105-.23a15.933 15.933 0 0 0-7.363 1.668 10.222 10.222 0 0 0-2.013 1.84A15.875 15.875 0 0 0 32.77 32.4c-.058 1.38 0 2.703.46 4.026l.403.863.69.058.057.172c-.172.115-.402.115-.633.173a4.674 4.674 0 0 0-1.668.69c-.402.288-.805.633-1.035 1.093-.287.575-.172 1.265-.057 1.898a5.274 5.274 0 0 0 1.898 2.818c.633.518 1.438.806 2.243.92.575.115 1.15 0 1.725-.057.288.23.46.69.633.978l1.035 1.553a7.822 7.822 0 0 0 3.797 2.876c1.265.517 2.588.805 3.91 1.092l2.359.46.978.288v.23h-.69a30.767 30.767 0 0 1-3.854-.46 14.667 14.667 0 0 1-4.832-1.898 6.106 6.106 0 0 1-1.668-1.553 12.31 12.31 0 0 1-.92 7.075c-.863 1.553-2.3 2.76-4.026 3.278-.173.058-.403.115-.575.058-.115 0-.115-.058-.115-.173.057-.172.23-.287.345-.345.69-.46 1.495-.805 2.185-1.323.748-.633 1.381-1.323 1.784-2.185.345-.863.575-1.841.69-2.819.115-.748.172-1.495.115-2.3l-.23-2.186-1.036-2.07-1.092.23a5.06 5.06 0 0 1-4.314-2.186 5.35 5.35 0 0 1-1.15-3.336c0-.518.172-1.036.46-1.438a3.53 3.53 0 0 1 1.092-.978c.288-.23.69-.345 1.036-.46l-.518-1.38c-.287-1.266-.287-2.589-.115-3.854a16.795 16.795 0 0 1 3.624-8.57c.517-.576 1.035-1.093 1.668-1.496.402-.23.805-.288 1.15-.518 2.473-1.092 5.176-1.438 7.88-1.265Z"/><path fill="#FFDECC" d="M45.307 20.894c2.39-.089 4.769.364 6.96 1.323a11.934 11.934 0 0 1 3.623 2.473c1.15 1.208 1.898 2.704 2.3 4.314l.346 2.588c.115 1.38 0 2.761-.058 4.142-.057.862-.172 1.668-.115 2.53 0 .23 0 .46.115.69l-.057 1.15c-.115.288-.115.576-.115.921-.115 1.38-.115 2.819-.345 4.257-.058.69-.173 1.437-.46 2.07-.173.518-.46.978-.863 1.38-.69.748-1.553 1.38-2.474 1.899-1.092.632-2.243.92-3.336 1.38-.287.115-.575.23-.747.46.46.058.862 0 1.323-.115-.288.69-.345 1.38-.345 2.07 0 .288-.058.633.057.921.173.288.46.518.748.69l2.013.748c1.265.46 2.473 1.035 3.738 1.553.116.23.288.402.346.69.345.633.402 1.323.172 2.013-.287.748-.863 1.38-1.553 1.783-.92.633-2.07 1.093-3.163 1.38-4.473.956-9.11.818-13.517-.402-1.15-.403-2.3-.805-3.336-1.38-.805-.46-1.668-1.036-2.3-1.783-.346-.46-.633-1.093-.69-1.668a7.018 7.018 0 0 0 4.946-6.155c.23-1.38.23-2.818 0-4.199a6.108 6.108 0 0 0 1.668 1.553l1.553.806c2.255.973 4.677 1.5 7.132 1.553h.69v-.23l-.978-.288-2.358-.46c-1.323-.288-2.646-.575-3.911-1.093-.748-.345-1.553-.748-2.243-1.208-.575-.517-1.093-1.035-1.553-1.668l-1.036-1.553c-.172-.287-.345-.748-.632-.978-.575.058-1.15.173-1.726.058-.805-.115-1.61-.403-2.243-.92a5.407 5.407 0 0 1-1.898-2.819c-.115-.632-.23-1.323.058-1.898.23-.46.632-.805 1.035-1.093a4.672 4.672 0 0 1 1.668-.69c.23-.057.46-.057.633-.172l-.058-.173-.69-.057-.403-.863c-.46-1.323-.517-2.646-.402-4.026a15.875 15.875 0 0 1 3.105-7.995 10.219 10.219 0 0 1 2.014-1.84 15.933 15.933 0 0 1 7.362-1.726v.057Z"/><path fill="#262626" d="M32.942 39.758c.23 0 .403 0 .633.115.287.057.633.23.805.46a.523.523 0 0 1 0 .575c-.288.345-.69.575-.92.92.345.23.805.345 1.208.518.23.058.46.173.632.345l.058.173-.46-.115-1.38-.403c-.23-.057-.46-.172-.518-.402-.058-.173.057-.403.172-.576l.863-.747c-.23-.403-.863-.46-1.093-.863Zm25.48.345.115.172.115.92c.12 1.707.081 3.42-.115 5.12-.115.633-.287 1.323-.575 1.898a11.39 11.39 0 0 1-6.097 4.084c-.057.805-.172 1.783-.115 2.703l.288.288c.46.345 1.035.517 1.553.69 1.345.43 2.653.968 3.911 1.61.403.23.748.518 1.035.863-.287.057-.575-.058-.92-.115-1.265-.518-2.473-1.093-3.739-1.553l-2.013-.748c-.287-.172-.575-.402-.747-.69-.115-.288-.058-.633-.058-.92 0-.69.058-1.38.345-2.07-.46.114-.863.172-1.323.114.173-.23.46-.345.748-.46 1.093-.46 2.243-.748 3.336-1.38.92-.518 1.783-1.15 2.473-1.898.403-.403.69-.863.863-1.38.288-.634.403-1.381.46-2.072.23-1.438.23-2.875.345-4.256 0-.345 0-.633.115-.92ZM56.466 34.124c.46-.058.92.057 1.265.345.172.172.345.402.345.633.058.287-.23.575-.518.575-.23-.058-.345-.173-.46-.345l-.575-.403c.518.92.23 2.186-.575 2.818-.403.345-1.035.46-1.438.058-.345-.288-.46-.69-.46-1.15-.115.287-.288.517-.345.805-.058.115-.058.23-.173.23-.115-.288-.057-.633.058-.978.345-.92.977-1.726 1.84-2.186.288-.23.633-.345 1.036-.402Zm-12.194.632c1.553.058 3.048 1.036 3.681 2.416.115.115.23.345.057.518-.172 0-.287-.23-.402-.345-.23-.46-.575-.806-.978-1.093.115.633.115 1.208-.23 1.783-.288.46-.92.748-1.438.69-.403-.115-.805-.287-1.093-.633-.345-.345-.46-.92-.46-1.38 0-.403.173-.748.345-1.035-.805.172-1.61.517-2.243 1.035-.172.058-.288.173-.46.173-.23-.058-.345-.23-.345-.46 0-.173.115-.346.23-.46.46-.346.92-.69 1.495-.921a4.004 4.004 0 0 1 1.84-.288ZM44.848 28.6c.863.058 1.84.288 2.531.863.23.173.46.403.518.633.057.172.057.287-.115.345-.173 0-.345-.173-.46-.288-.633-.46-1.38-.747-2.186-.747-.46 0-.863.115-1.323.23-.863.172-1.668.632-2.186 1.323-.172.172-.287.402-.575.46a.487.487 0 0 1-.575-.46c-.057-.23.115-.46.23-.633.69-.863 1.726-1.438 2.818-1.668.403-.115.863-.115 1.323-.058Zm11.791.575c.288.116.575.403.748.633.173.173.288.403.288.633 0 .345-.345.575-.69.46-.288-.115-.346-.403-.576-.633-.23-.172-.517-.402-.747-.46-.69-.23-1.38.058-1.841.518l-.518.517c0-.402.23-.747.518-.977.69-.748 1.84-1.036 2.818-.69ZM52.9 41.773c0 .173-.115.345-.23.518-.23.345-.633.575-1.036.69-.287.058-.517-.115-.747 0-.23 0-.46.058-.69-.057-.116-.058-.116-.23 0-.345.172-.23.46-.403.69-.403.23-.058.402-.058.575.115l.057.403c.288-.115.403-.288.633-.46l.748-.46ZM45.365 44.875c.172 0 .288.115.402.23l.748.403c.633.287 1.323.46 1.956.632.863.288 1.725.346 2.588.346.69.057 1.323.114 1.956.057l.23.115c-1.035.518-2.358.633-3.509.575-1.323-.057-2.646-.46-3.796-1.035-.345-.23-.748-.46-.805-.92-.058-.173.057-.403.23-.403Z"/><path fill="#262626" d="M47.206 19.575c1.929.11 3.82.578 5.579 1.38.805.403 1.668.805 2.416 1.323.46.288.92.633 1.265 1.035l1.265 1.438c-.517.23-1.035.173-1.553.115-.977-.115-1.955-.23-2.933-.172l-.46-.058-.403-.287-.69-.46c0 .23-.057.402-.172.632a.522.522 0 0 1-.403.173c-.23-.058-.403-.173-.633-.173a27.033 27.033 0 0 0-8.915.173h-.633l-1.035-.345c.057.517.23 1.035.173 1.495-.058.23-.058.46-.173.633-.403.805-.863 1.553-1.208 2.415a18.804 18.804 0 0 0-.978 3.049c0 .115-.057.23-.172.287l-.69.115c.287.518.345 1.15.287 1.726-.057.69-.172 1.495-.517 2.07.402.518.575 1.208.575 1.899.057 1.092 0 2.128-.403 3.163-.115.23-.288.518-.575.633-.058.057-.23.057-.23-.058-.115-.23-.115-.517-.173-.748a4.004 4.004 0 0 0-1.15-2.3c-.46-.403-.978-.805-1.495-1.093-.346-.115-.633-.23-.92-.46l-.346-.46c-.69-1.84-.92-3.854-.69-5.81.244-2.292.97-4.506 2.128-6.499.575-.92 1.265-1.726 2.013-2.473.575-.518 1.15-.978 1.783-1.323l.805-.288 1.841-.632 1.093-.115h2.473c1.323 0 2.53-.116 3.854 0Z"/></g></svg>