<svg xmlns="http://www.w3.org/2000/svg" width="80" height="80" fill="none"><rect width="79" height="79" x=".5" y=".5" fill="#FFF5F0" rx="39.5"/><rect width="79" height="79" x=".5" y=".5" stroke="#333" rx="39.5"/><mask id="a" width="58" height="58" x="11" y="11" maskUnits="userSpaceOnUse" style="mask-type:luminance"><path fill="#fff" d="M68.238 11.875H11.871v56.367h56.367V11.875Z"/></mask><g mask="url(#a)"><path fill="#262626" d="M41.21 18.753a17.81 17.81 0 0 1 4.83.863 11.56 11.56 0 0 1 5.752 3.739 10.405 10.405 0 0 1 2.014 4.946c.31 1.921.349 3.877.115 5.81l-.288 1.955-.23 1.15c-.057.115-.057.115-.173.115-.115-.23-.115-.46-.115-.69-.057-.863.058-1.668.115-2.53.058-1.381.173-2.762.058-4.142l-.345-2.588c-.403-1.61-1.15-3.106-2.3-4.314a11.936 11.936 0 0 0-3.624-2.473 18.353 18.353 0 0 0-3.854-1.093c-1.035-.173-2.07-.23-3.106-.23a15.933 15.933 0 0 0-7.362 1.668 10.217 10.217 0 0 0-2.013 1.84 15.875 15.875 0 0 0-3.164 7.995c-.057 1.38 0 2.703.46 4.026l.403.863.69.058.058.172c-.173.115-.403.115-.633.173a4.673 4.673 0 0 0-1.668.69c-.403.288-.805.633-1.035 1.093-.288.575-.173 1.265-.058 1.898a5.274 5.274 0 0 0 1.898 2.818c.633.518 1.438.806 2.243.92.576.115 1.15 0 1.726-.057.288.23.46.69.633.978l1.035 1.553a7.823 7.823 0 0 0 3.796 2.876c1.266.517 2.588.805 3.911 1.092l2.358.46.978.288v.23h-.69a30.767 30.767 0 0 1-3.854-.46 14.668 14.668 0 0 1-4.831-1.898 6.109 6.109 0 0 1-1.668-1.553 12.309 12.309 0 0 1-.92 7.075c-.863 1.553-2.301 2.76-4.026 3.278-.173.058-.403.115-.576.058-.115 0-.115-.058-.115-.173.058-.172.23-.287.345-.345.69-.46 1.496-.805 2.186-1.323.748-.633 1.38-1.323 1.783-2.185.345-.863.575-1.841.69-2.819.115-.748.173-1.495.115-2.3l-.23-2.186-1.035-2.07-1.093.23a5.06 5.06 0 0 1-4.314-2.186 5.35 5.35 0 0 1-1.15-3.336c0-.518.173-1.036.46-1.438a3.53 3.53 0 0 1 1.093-.978c.288-.23.69-.345 1.035-.46l-.517-1.38c-.288-1.266-.288-2.589-.116-3.854a16.795 16.795 0 0 1 3.624-8.57c.518-.576 1.035-1.093 1.668-1.496.403-.23.805-.288 1.15-.518 2.474-1.092 5.177-1.438 7.88-1.265Z"/><path fill="#FFDECC" d="M40.058 19.27c2.39-.09 4.77.363 6.96 1.322a11.934 11.934 0 0 1 3.623 2.473c1.15 1.208 1.899 2.704 2.301 4.314l.345 2.588c.115 1.38 0 2.761-.057 4.142-.058.862-.173 1.668-.115 2.53 0 .23 0 .46.115.69l-.058 1.15c-.115.288-.115.576-.115.921-.115 1.38-.115 2.819-.345 4.257-.057.69-.172 1.437-.46 2.07-.173.518-.46.978-.863 1.38-.69.748-1.553 1.38-2.473 1.899-1.093.632-2.243.92-3.336 1.38-.288.115-.575.23-.748.46.46.058.863 0 1.323-.115-.287.69-.345 1.38-.345 2.07 0 .288-.058.633.058.921.172.288.46.518.747.69l2.013.748c1.266.46 2.474 1.035 3.739 1.553.115.23.288.402.345.69.345.633.403 1.323.173 2.013-.288.748-.863 1.38-1.553 1.783-.92.633-2.07 1.093-3.164 1.38-4.472.956-9.109.818-13.516-.402-1.15-.403-2.301-.805-3.336-1.38-.806-.46-1.668-1.036-2.301-1.783-.345-.46-.633-1.093-.69-1.668a7.017 7.017 0 0 0 4.946-6.155c.23-1.38.23-2.818 0-4.199a6.108 6.108 0 0 0 1.668 1.553l1.553.806c2.255.973 4.677 1.5 7.132 1.553h.69v-.23l-.977-.288-2.358-.46c-1.323-.288-2.646-.575-3.912-1.093-.747-.345-1.553-.748-2.243-1.208-.575-.517-1.093-1.035-1.553-1.668l-1.035-1.553c-.173-.287-.345-.748-.633-.978-.575.058-1.15.173-1.725.058-.805-.115-1.61-.403-2.243-.92a5.407 5.407 0 0 1-1.899-2.819c-.114-.632-.23-1.323.058-1.898.23-.46.633-.805 1.035-1.093a4.674 4.674 0 0 1 1.668-.69c.23-.057.46-.057.633-.172l-.057-.173-.69-.057-.403-.863c-.46-1.323-.518-2.646-.403-4.026a15.874 15.874 0 0 1 3.106-7.995 10.219 10.219 0 0 1 2.013-1.84 15.932 15.932 0 0 1 7.362-1.726v.057Z"/><path fill="#262626" d="M27.694 38.14c.23 0 .402 0 .632.116.288.057.633.23.805.46a.522.522 0 0 1 0 .575c-.287.345-.69.575-.92.92.345.23.806.345 1.208.518.23.057.46.172.633.345l.057.173-.46-.115-1.38-.403c-.23-.058-.46-.173-.518-.403-.057-.172.058-.402.173-.575l.862-.748c-.23-.402-.862-.46-1.092-.862Zm25.48.346.115.172.115.92c.12 1.707.08 3.42-.115 5.12-.115.632-.288 1.322-.575 1.898a11.388 11.388 0 0 1-6.097 4.083c-.058.806-.173 1.783-.115 2.704l.287.287c.46.345 1.036.518 1.553.69 1.346.43 2.654.969 3.912 1.611.402.23.747.518 1.035.863-.288.057-.575-.058-.92-.115-1.266-.518-2.474-1.093-3.74-1.553l-2.012-.748c-.288-.172-.575-.403-.748-.69-.115-.288-.057-.633-.057-.92 0-.69.057-1.38.345-2.071-.46.115-.863.172-1.323.115.172-.23.46-.345.747-.46 1.093-.46 2.244-.748 3.336-1.38.92-.518 1.783-1.15 2.474-1.899.402-.402.69-.862.863-1.38.287-.633.402-1.38.46-2.07.23-1.439.23-2.877.345-4.257 0-.345 0-.633.115-.92ZM52.598 34.625l-.115.403c-.173.287-.345.517-.633.69-.288.172-.633.23-.978.287l-1.035.115c-.288 0-.46.173-.575.346l-.403.402c-.115.058-.288-.057-.23-.172.058-.46.403-.806.633-1.15.172-.173.402-.403.69-.403l1.725-.288c.288-.057.576-.23.92-.23Zm-17.543.23c.69-.057 1.208.173 1.84.23.863.115 1.726.23 2.589.23l1.38.115c.46.058.978 0 1.38.23.403.23.69.576.92.92.058.116.116.23 0 .403-.057.058-.172 0-.23-.057-.23-.115-.402-.345-.632-.403l-.69-.057-1.61-.058-1.266-.058c-.575-.057-1.15-.057-1.725-.287-.403-.115-.69-.345-1.093-.518l-.69-.517c-.116-.058-.173-.058-.173-.173ZM41.669 27.955c.403 0 .805.115 1.093.345.23.115.402.23.46.46a.277.277 0 0 1-.115.345c-.288.058-.575-.115-.805-.172l-.518-.058c-.748-.057-1.495.058-2.243.23a9.722 9.722 0 0 0-3.451 1.783c-.23.115-.518.288-.806.23-.172 0-.172-.23-.115-.402.058-.345.403-.633.69-.92.576-.518 1.323-.863 2.014-1.15 1.15-.519 2.53-.806 3.796-.691Zm8.973.115a1.355 1.355 0 0 1 1.15.172c.23.173.46.346.518.633.057.173.057.345-.116.403-.172.057-.402.057-.575-.058-.287-.172-.517-.345-.862-.345-.288 0-.576.058-.806.173-.46.23-.92.632-1.15 1.093l-.345.517h-.173v-.345c.115-.46.403-.92.748-1.265.403-.46.978-.863 1.61-.978ZM25.162 38.025c.288 0 .575-.058.805.115.173.115.288.287.23.517a.707.707 0 0 1-.633.403h-.92c-.287-.057-.517-.172-.632-.403-.058-.23.115-.402.287-.517.288-.115.575-.058.863-.115Zm.748 1.323c.172.057.402.172.402.402 0 .173-.057.346-.23.403-.287.23-.633.23-.978.345-.287.058-.575.115-.805-.057-.23-.173-.172-.518 0-.69.23-.23.46-.23.748-.288.287-.058.575-.173.863-.115Zm4.14 2.99h.461c.172.058.345.23.345.46 0 .288-.23.518-.518.576-.287.115-.517-.115-.632-.345-.058-.288.057-.633.345-.69ZM47.651 40.148c0 .173-.115.345-.23.518-.23.345-.633.575-1.035.69-.288.058-.518-.115-.748 0-.23 0-.46.058-.69-.057-.115-.058-.115-.23 0-.345.172-.23.46-.403.69-.403.23-.058.403-.058.575.115l.058.403c.287-.115.402-.288.632-.46l.748-.46Z"/><path fill="#262626" d="M54.092 38.946c.518 0 .978.23 1.266.633a1.67 1.67 0 0 1-.345 2.358c.46.115.92.403 1.265.748.518.633.92 1.495.863 2.358a2.79 2.79 0 0 1-.46 1.208c-.46.748-1.208 1.265-2.013 1.61l.46.518c.172.403.23.805.23 1.265a3.047 3.047 0 0 1-.863 1.898 3.566 3.566 0 0 1-2.186.978c-.575.058-1.207.058-1.783-.115a5.183 5.183 0 0 1-.345 1.266 3.336 3.336 0 0 1-4.026 1.495 3.467 3.467 0 0 1-1.61-1.38c-.863.517-1.784.69-2.761.69-.806.057-1.783 0-2.474-.403-.46-.172-.747-.517-1.035-.863a1.136 1.136 0 0 1-.345-.632c-.633.517-1.495.632-2.243.517-.575-.172-1.093-.46-1.38-.977-.288-.346-.346-.863-.346-1.323h-.805c-.46-.058-.92-.288-1.323-.576a6.203 6.203 0 0 1-1.495-2.128c-.115-.345-.23-.69-.23-1.092 0-.633.23-1.266.632-1.784-.172-.402-.23-.805-.115-1.207.173-.69.69-1.266 1.266-1.61.517-.346 1.15-.461 1.783-.403.115-.345.287-.576.575-.806.633-.575 1.438-.92 2.3-.92.576 0 1.093.058 1.554.288.23-.346.517-.518.862-.633.633-.288 1.323-.23 1.956.057 1.093.403 1.956 1.036 2.99 1.438.288.23.691.173 1.094.23.402.058.805 0 1.207-.057.173-.058.403-.058.518-.173l1.093-.575 1.15-.863c.46-.287 1.036-.575 1.61-.517.23.057.404.172.519.345a5.292 5.292 0 0 1 2.99-.863Z"/><path fill="#FFDECC" d="M40.232 44.288c.173-.057.288 0 .288.115 0 .173-.173.345-.345.403-.173-.173-.115-.403.057-.518Zm1.438.69 2.07.403 1.726.115c.403.058.748 0 1.093.115-.057.115-.172.173-.345.23a9.09 9.09 0 0 1-4.256-.345c-.173-.058-.403-.172-.46-.345a.127.127 0 0 1 .172-.173Z"/><path fill="#262626" d="M39.944 18.006a23.23 23.23 0 0 1 4.832.518c.633.172 1.208.288 1.783.518l2.013.747c.575.173 1.093.518 1.668.748l.92.345 1.668.345c.288.115.518.288.633.575.173.346.115.69 0 1.036l.575.287c.288.288.403.69.288 1.093-.115.23-.345.403-.575.518a5.694 5.694 0 0 1-3.969.46l-2.53-.575-3.567-.978a13.747 13.747 0 0 0-9.375.173l-.23.805c-.23.92-.403 1.84-.46 2.76v.978l-.058.46c-.172.403-.518.806-.748 1.208a25.762 25.762 0 0 0-1.84 3.221l-.115.806v2.243c0 .287.115.518-.058.748-.863-.116-1.725-.346-2.645-.576-.116 0-.288 0-.403-.115l-.403-.517c-.23-.173-.287-.518-.402-.806-.403-1.207-.518-2.588-.518-3.91 0-1.611.288-3.164.575-4.717.23-.863.575-1.668.978-2.416.575-1.15 1.38-2.128 2.3-2.99.92-.921 2.014-1.554 3.222-2.014a17.14 17.14 0 0 1 6.441-.978Zm-10.64 19.038c.575 0 1.15.173 1.668.288.23.058.517.173.69.345.173.115.115.345-.057.403-.518.172-.92 0-1.38-.115-.346-.115-.806-.23-1.151-.46-.115-.058-.288-.23-.173-.345.115-.115.288-.115.403-.115Zm25.135 6.73c.057.115.057.173-.058.288l.058-.288Z"/></g></svg>